<svg width="77" height="77" xmlns="http://www.w3.org/2000/svg" xmlns:xlink="http://www.w3.org/1999/xlink" xml:space="preserve" overflow="hidden"><defs><clipPath id="clip0"><rect x="505" y="600" width="77" height="77"/></clipPath></defs><g clip-path="url(#clip0)" transform="translate(-505 -600)"><path d="M582 638.505C582 659.768 564.763 677.005 543.5 677.005 522.237 677.005 505 659.768 505 638.505 505 617.242 522.237 600.005 543.5 600.005 564.763 600.005 582 617.242 582 638.505Z" fill="#1977F3"/><path d="M558.486 649.637 560.192 638.505 549.515 638.505 549.515 631.283C549.515 628.24 551.004 625.268 555.79 625.268L560.647 625.268 560.647 615.793C560.647 615.793 556.24 615.041 552.027 615.041 543.235 615.041 537.485 620.368 537.485 630.021L537.485 638.505 527.707 638.505 527.707 649.637 537.485 649.637 537.485 676.54C539.445 676.848 541.453 677.005 543.5 677.005 545.547 677.005 547.555 676.843 549.515 676.54L549.515 649.637Z" fill="#FFFFFF"/></g></svg>