<svg width="76" height="77" xmlns="http://www.w3.org/2000/svg" xmlns:xlink="http://www.w3.org/1999/xlink" xml:space="preserve" overflow="hidden"><defs><radialGradient cx="-1341.34" cy="6883.76" r="0.697" gradientUnits="userSpaceOnUse" spreadMethod="pad" id="fill0" gradientTransform="matrix(118.75 0 0 -118.75 159299 817521)"><stop offset="0" stop-color="#0099FF"/><stop offset="0.6098" stop-color="#A033FF"/><stop offset="0.9348" stop-color="#FF5280"/><stop offset="1" stop-color="#FF7061"/></radialGradient></defs><g transform="translate(-815 -600)"><path d="M38 0C16.5934 0 0 15.6803 0 36.86 0 47.9383 4.54026 57.5114 11.9341 64.1235 12.5548 64.6791 12.9295 65.4574 12.9549 66.2903L13.1618 73.0497C13.2279 75.2059 15.455 76.6087 17.428 75.7377L24.9705 72.4081C25.6098 72.1261 26.3263 72.0737 27 72.2591 30.4661 73.2122 34.1549 73.7199 37.9999 73.7199 59.4063 73.7199 75.9998 58.0395 75.9998 36.8599 75.9998 15.6802 59.4065-4.21885e-15 38-4.21885e-15Z" fill="url(#fill0)" fill-rule="evenodd" transform="matrix(1 0 0 1.01316 815 600)"/><path d="M15.1811 47.6395 26.3436 29.93C28.1193 27.1127 31.9215 26.4112 34.5856 28.4093L43.4637 35.0679C44.2783 35.679 45.399 35.6756 46.2102 35.06L58.2006 25.9602C59.801 24.7457 61.89 26.661 60.819 28.3606L49.6565 46.0703C47.8807 48.8874 44.0785 49.5891 41.4145 47.5908L32.5362 40.9321C31.7217 40.3213 30.6008 40.3245 29.7898 40.9401L17.7994 50.0399C16.199 51.2543 14.1099 49.3391 15.1811 47.6395Z" fill="#FFFFFF" fill-rule="evenodd" transform="matrix(1 0 0 1.01316 815 600)"/></g></svg>