<svg width="77" height="77" xmlns="http://www.w3.org/2000/svg" xmlns:xlink="http://www.w3.org/1999/xlink" xml:space="preserve" overflow="hidden"><defs><linearGradient x1="399.337" y1="475.836" x2="380.087" y2="520.75" gradientUnits="userSpaceOnUse" spreadMethod="pad" id="fill0"><stop offset="0" stop-color="#37AEE2"/><stop offset="1" stop-color="#1E96C8"/></linearGradient></defs><g transform="translate(-348 -463)"><path d="M425 501.5C425 522.763 407.763 540 386.5 540 365.237 540 348 522.763 348 501.5 348 480.237 365.237 463 386.5 463 407.763 463 425 480.237 425 501.5Z" fill="url(#fill0)"/><path d="M362.338 503.383C366.839 500.904 371.863 498.835 376.557 496.756 384.633 493.349 392.741 490.002 400.93 486.886 402.523 486.355 405.387 485.836 405.667 488.197 405.513 491.539 404.881 494.862 404.447 498.185 403.347 505.492 402.074 512.775 400.833 520.058 400.406 522.484 397.367 523.74 395.422 522.187 390.749 519.03 386.04 515.905 381.426 512.675 379.915 511.139 381.316 508.934 382.666 507.837 386.515 504.044 390.597 500.821 394.245 496.832 395.229 494.456 392.321 496.458 391.362 497.072 386.093 500.703 380.952 504.556 375.397 507.748 372.559 509.31 369.252 507.975 366.415 507.103 363.872 506.05 360.145 504.989 362.338 503.384Z" fill="#FFFFFF"/></g></svg>