<svg width="77" height="77" xmlns="http://www.w3.org/2000/svg" xmlns:xlink="http://www.w3.org/1999/xlink" xml:space="preserve" overflow="hidden"><g transform="translate(-348 -600)"><path d="M375.386 639.914C369.28 639.914 364.347 644.846 364.438 650.892 364.498 654.772 366.633 658.141 369.777 660.021 368.709 658.382 368.077 656.442 368.047 654.351 367.957 648.305 372.89 643.373 378.996 643.373 380.199 643.373 381.357 643.568 382.439 643.914L382.439 631.808C381.312 631.642 380.154 631.552 378.996 631.552 378.935 631.552 378.89 631.552 378.83 631.552L378.83 640.455C377.747 640.109 376.589 639.914 375.386 639.914Z" fill="#F00044"/><path d="M401.78 603.609 401.689 603.609 398.561 603.609C399.464 608.136 402.005 612.076 405.555 614.753 403.223 611.67 401.81 607.82 401.78 603.609Z" fill="#F00044"/><path d="M420.188 622.032C418.999 622.032 417.856 621.912 416.729 621.701L416.729 630.379C412.638 630.379 408.668 629.582 404.938 627.988 402.532 626.965 400.291 625.657 398.23 624.078L398.291 650.832C398.261 656.848 395.884 662.487 391.583 666.743 388.079 670.202 383.643 672.413 378.83 673.12 377.702 673.285 376.544 673.376 375.386 673.376 370.243 673.376 365.34 671.706 361.355 668.623 361.806 669.165 362.287 669.691 362.813 670.202 367.145 674.473 372.89 676.835 379.011 676.835 380.169 676.835 381.327 676.744 382.454 676.579 387.267 675.872 391.704 673.661 395.208 670.202 399.509 665.946 401.885 660.307 401.915 654.291L401.689 627.536C403.735 629.116 405.976 630.439 408.397 631.447 412.142 633.026 416.112 633.838 420.188 633.838" fill="#F00044"/><path d="M362.768 638.214C367.055 633.958 372.754 631.597 378.83 631.552L378.83 628.349C377.702 628.183 376.544 628.093 375.386 628.093 369.25 628.093 363.49 630.454 359.159 634.755 354.903 638.981 352.467 644.756 352.482 650.757 352.482 656.803 354.873 662.472 359.189 666.758 359.881 667.435 360.588 668.067 361.34 668.638 357.941 664.593 356.091 659.54 356.076 654.216 356.091 648.215 358.512 642.44 362.768 638.214Z" fill="#08FFF9"/><path d="M416.729 621.701 416.729 618.483 416.698 618.483C412.518 618.483 408.668 617.099 405.57 614.753 408.262 618.303 412.202 620.829 416.729 621.701Z" fill="#08FFF9"/><path d="M378.379 664.999C379.808 665.074 381.176 664.879 382.439 664.472 386.801 663.044 389.944 658.983 389.944 654.201L389.959 636.304 389.959 603.609 398.561 603.609C398.336 602.481 398.215 601.339 398.2 600.15L386.35 600.15 386.35 632.83 386.335 650.727C386.335 655.509 383.191 659.57 378.83 660.998 377.567 661.42 376.198 661.615 374.77 661.525 372.95 661.42 371.25 660.878 369.777 660.006 371.626 662.863 374.785 664.803 378.379 664.999Z" fill="#08FFF9"/><path d="M378.83 673.12C383.643 672.413 388.079 670.202 391.583 666.743 395.884 662.487 398.261 656.848 398.291 650.832L398.23 624.078C400.276 625.657 402.517 626.98 404.938 627.988 408.683 629.567 412.653 630.379 416.729 630.379L416.729 621.701C412.202 620.829 408.262 618.303 405.57 614.753 402.02 612.076 399.464 608.136 398.576 603.609L389.959 603.609 389.959 636.289 389.944 654.186C389.944 658.968 386.801 663.029 382.439 664.457 381.176 664.879 379.808 665.074 378.379 664.984 374.77 664.788 371.626 662.848 369.777 660.006 366.633 658.141 364.498 654.757 364.438 650.877 364.347 644.831 369.28 639.899 375.386 639.899 376.589 639.899 377.747 640.094 378.83 640.44L378.83 631.537C372.754 631.582 367.055 633.943 362.768 638.199 358.512 642.425 356.076 648.2 356.091 654.186 356.091 659.51 357.941 664.563 361.355 668.608 365.355 671.691 370.243 673.361 375.386 673.361 376.544 673.376 377.702 673.285 378.83 673.12Z"/></g></svg>