<svg width="77" height="77" xmlns="http://www.w3.org/2000/svg" xmlns:xlink="http://www.w3.org/1999/xlink" xml:space="preserve" overflow="hidden"><defs><clipPath id="clip0"><rect x="196" y="463" width="77" height="77"/></clipPath></defs><g clip-path="url(#clip0)" transform="translate(-196 -463)"><path d="M-238.751 457.074C-215.059 457.072-191.367 457.072-167.676 457.074-167.668 459.723-167.619 462.416-168.313 464.996-168.876 467.054-169.809 469.031-171.106 470.729-173.12 472.967-174.957 475.351-176.839 477.699-191.024 495.486-205.211 513.27-219.396 531.057-202.156 531.059-184.915 531.057-167.676 531.059-167.691 533.907-167.641 536.76-167.701 539.608-167.85 542.652-170.613 545.256-173.66 545.239-196.033 545.259-218.407 545.244-240.779 545.246-240.737 542.617-240.949 539.951-240.386 537.36-239.918 535.167-238.778 533.165-237.332 531.47-221.37 511.739-205.413 492.008-189.453 472.277-205.886 472.27-222.318 472.279-238.751 472.272-238.748 467.206-238.753 462.14-238.751 457.074Z" fill="#0068FF"/><path d="M-82.3966 457.074C-77.3183 457.072-72.2424 457.072-67.1665 457.074-67.1665 486.464-67.164 515.856-67.1665 545.249-70.6417 545.234-74.1194 545.271-77.5921 545.229-80.2358 545.159-82.5061 542.722-82.3966 540.081-82.3966 512.411-82.3966 484.741-82.3966 457.074Z" fill="#0068FF"/><path d="M-23.734 476.213C-15.0734 475.782-6.30573 478.729 0.316055 484.331 6.48479 489.479 10.7989 496.81 12.2253 504.724 13.7264 512.797 12.2726 521.388 8.12778 528.483 3.95555 535.737-2.91518 541.39-10.8439 544.069-19.4398 547.024-29.1883 546.444-37.3585 542.453-45.1627 538.697-51.4634 531.93-54.6274 523.867-58.1026 515.162-57.8462 505.05-53.9055 496.544-50.6767 489.469-45.0034 483.556-38.0804 480.019-33.6468 477.734-28.7153 476.434-23.734 476.213ZM-24.9364 490.723C-32.1432 491.639-38.6131 496.713-41.2394 503.484-43.1712 508.304-43.1588 513.865-41.2145 518.679-39.6213 522.682-36.7187 526.145-33.0692 528.43-29.2455 530.855-24.6028 531.928-20.1044 531.475-16.4525 531.124-12.9051 529.762-9.9552 527.581-6.32066 524.92-3.60474 521.029-2.37248 516.695-1.03319 512.043-1.4066 506.914-3.44043 502.518-5.40457 498.216-8.90466 494.639-13.164 492.59-16.7886 490.816-20.9434 490.181-24.9364 490.723Z" fill="#0068FF"/><path d="M-143.524 479.638C-137.487 476.91-130.656 475.994-124.109 476.979-118.6 477.793-113.305 479.982-108.809 483.265-108.812 481.682-108.812 480.099-108.809 478.515-104.067 478.515-99.322 478.513-94.5797 478.515-94.5822 500.761-94.5797 523.003-94.5797 545.246-97.455 545.229-100.333 545.286-103.208 545.219-106.275 545.049-108.832 542.261-108.829 539.204-116.083 544.547-125.468 546.852-134.375 545.495-141.931 544.412-149.065 540.71-154.335 535.191-159.431 529.919-162.774 522.981-163.695 515.702-164.594 508.829-163.389 501.692-160.218 495.523-156.668 488.54-150.676 482.835-143.524 479.638ZM-130.519 490.905C-137.743 491.261-144.539 495.819-147.656 502.339-149.926 506.957-150.32 512.448-148.764 517.352-147.512 521.353-144.978 524.93-141.637 527.457-138.211 530.071-133.94 531.552-129.63 531.604-125.247 531.691-120.845 530.32-117.303 527.731-113.658 525.109-110.93 521.243-109.683 516.932-108.446 512.702-108.627 508.07-110.213 503.96-111.65 500.206-114.229 496.902-117.517 494.594-121.264 491.928-125.934 490.619-130.519 490.905Z" fill="#0068FF"/><path d="M18.5061 415.242 18.9666 415.242C18.887 415.369 18.7227 415.621 18.6405 415.748L18.5061 415.618 18.5061 415.242Z" fill="#012A66"/><path d="M18.5061 587.332 18.6978 587.267C18.7724 587.354 18.9243 587.531 18.999 587.618L18.877 587.758 18.5061 587.758 18.5061 587.332Z" fill="#012A66"/><path d="M18.9666 415.242 67.8459 415.242 68.3836 415.374C65.1125 417.682 61.8938 420.097 59.0359 422.912 53.1236 428.658 48.568 435.69 45.1924 443.186 39.651 455.399 37.1193 468.827 36.7932 482.19 36.5268 492.941 37.901 503.733 40.8932 514.064 42.8698 520.947 45.5857 527.656 49.3995 533.735 50.3031 535.236 51.4831 536.608 51.986 538.321 52.7527 540.813 52.3494 543.486 51.7121 545.963 50.7164 549.742 48.5879 553.13 45.9741 556 45.4961 556.414 45.8073 556.979 46.213 557.292 47.6893 558.816 49.1854 560.317 50.6566 561.848 53.3651 564.858 56.32 567.633 59.1031 570.573 61.0399 572.779 63.2106 574.765 65.2096 576.916 67.2061 579.224 69.5038 581.248 71.5003 583.555 72.6604 584.92 74.1391 586.003 75.1299 587.511 60.3229 587.561 45.5135 587.519 30.7066 587.534 26.8007 587.429 22.9023 587.735 18.999 587.618 18.9243 587.531 18.7724 587.354 18.6978 587.267 18.6007 578.056 18.6853 568.838 18.6554 559.625 18.8197 556.725 18.7451 553.817 18.76 550.914 18.76 516.563 18.76 482.212 18.76 447.861 18.7998 446.36 18.7127 444.861 18.6554 443.363 18.643 434.157 18.6778 424.951 18.6405 415.748 18.7227 415.621 18.887 415.369 18.9666 415.242Z" fill="#0068FE"/><path d="M67.8459 415.242 190.628 415.242 190.506 415.409C187.113 415.33 183.72 415.382 180.327 415.374 178.084 415.559 175.836 415.476 173.588 415.491 139.488 415.491 105.388 415.491 71.2887 415.491 70.3204 415.481 69.3371 415.581 68.3836 415.374L67.8459 415.242Z" fill="#C1C2C2"/><path d="M190.628 415.242 191.021 415.242 191.021 415.671C190.892 415.603 190.635 415.474 190.506 415.409L190.628 415.242Z" fill="#454647"/><path d="M59.0359 422.912C61.8938 420.097 65.1125 417.682 68.3836 415.374 69.3371 415.581 70.3204 415.481 71.2887 415.491 105.388 415.491 139.488 415.491 173.588 415.491 175.836 415.476 178.084 415.559 180.327 415.374 183.72 415.382 187.113 415.33 190.506 415.409 190.635 415.474 190.892 415.603 191.021 415.671L191.021 542.789C188.218 545.859 185.184 548.731 181.823 551.191 174.208 556.784 165.485 560.758 156.446 563.434 145.699 566.563 134.494 568.022 123.31 568.064 111.931 567.989 100.529 566.446 89.6231 563.162 82.3466 560.959 75.339 557.845 68.9039 553.79 68.2666 553.274 67.5123 553.72 66.8725 553.969 60.3678 556.665 53.2456 557.927 46.213 557.292 45.8073 556.979 45.4961 556.414 45.9741 556 48.5879 553.13 50.7164 549.742 51.7121 545.963 52.3494 543.486 52.7527 540.813 51.986 538.321 51.4831 536.608 50.3031 535.236 49.3995 533.735 45.5857 527.656 42.8698 520.947 40.8932 514.064 37.901 503.733 36.5268 492.941 36.7932 482.19 37.1193 468.827 39.651 455.399 45.1924 443.186 48.568 435.69 53.1236 428.658 59.0359 422.912ZM132.72 471.749C132.52 472.394 132.608 473.076 132.613 473.741 132.62 486.265 132.605 498.789 132.62 511.311 132.608 512.297 133.093 513.387 134.099 513.696 135.612 514.151 137.21 513.8 138.761 513.937 139.311 514.054 139.847 513.646 139.794 513.066 139.745 499.461 139.779 485.852 139.777 472.245 139.877 471.762 139.341 471.677 138.998 471.719 136.904 471.732 134.811 471.689 132.72 471.749ZM59.2226 472.757C59.2102 474.737 59.2201 476.716 59.2127 478.695 59.1828 479.267 59.845 479.449 60.3005 479.422 66.1208 479.446 71.9434 479.29 77.7612 479.414 79.22 479.506 80.6862 479.277 82.135 479.501 81.2463 480.86 80.1385 482.055 79.1552 483.342 72.8297 491.219 66.5166 499.105 60.1562 506.957 58.7123 508.707 57.9605 511.042 58.2617 513.307 58.3613 513.8 58.9065 513.967 59.3496 513.937 69.2126 513.935 79.0781 513.932 88.9435 513.937 89.9169 513.937 90.9749 513.788 91.7192 513.098 93.066 511.784 92.5307 509.752 92.6702 508.079 92.812 507.372 92.0528 507.031 91.4653 507.114 84.7365 507.114 78.0076 507.116 71.2813 507.114 70.3677 507.104 69.4491 507.173 68.5404 507.056 69.3321 505.814 70.3253 504.719 71.2165 503.551 77.694 495.416 84.1017 487.223 90.6338 479.133 91.8984 477.537 92.5631 475.526 92.6527 473.502 92.6502 473.066 92.7971 472.304 92.2096 472.197 91.0521 472.055 89.882 472.17 88.7195 472.165 79.2623 472.162 69.8026 472.195 60.3454 472.138 59.9197 472.14 59.1703 472.14 59.2226 472.757ZM158.552 481.373C154.544 481.948 150.808 484.092 148.241 487.216 145.834 490.109 144.437 493.855 144.462 497.629 144.402 501.423 145.786 505.197 148.184 508.129 150.658 511.186 154.245 513.342 158.134 513.997 161.855 514.624 165.789 513.922 169.057 512.023 172.57 510.019 175.296 506.675 176.545 502.827 177.867 498.782 177.546 494.224 175.642 490.415 174.19 487.462 171.835 484.965 168.978 483.34 165.851 481.543 162.117 480.845 158.552 481.373ZM105.291 482.324C101.734 483.519 98.7293 486.111 96.8075 489.312 94.7712 492.673 93.9846 496.785 94.709 500.654 95.3537 504.365 97.4075 507.766 100.268 510.195 103.559 513.021 108.042 514.383 112.351 513.949 115.134 513.686 117.758 512.56 120.101 511.074 120.407 512.105 120.875 513.29 121.993 513.658 123.377 514.101 124.853 513.87 126.279 513.922 126.738 513.984 126.974 513.477 126.942 513.093 126.887 503.058 126.934 493.019 126.924 482.984 126.949 482.369 126.289 482.217 125.804 482.302 124.183 482.404 122.558 482.227 120.942 482.362 120.034 482.531 120.31 483.706 120.113 484.378 118.968 483.659 117.796 482.976 116.531 482.491 112.969 481.06 108.906 481.092 105.291 482.324Z" fill="#FDFEFE"/><path d="M18.5061 415.618 18.6405 415.748C18.6778 424.951 18.643 434.157 18.6554 443.363 18.7127 444.861 18.7998 446.36 18.76 447.861 18.76 482.212 18.76 516.563 18.76 550.914 18.7451 553.817 18.8197 556.725 18.6554 559.625 18.6853 568.838 18.6007 578.056 18.6978 587.267L18.5061 587.332 18.5061 415.618Z" fill="#0052CA"/><path d="M132.72 471.749C134.811 471.689 136.904 471.732 138.998 471.719 139.341 471.677 139.877 471.762 139.777 472.245 139.779 485.852 139.745 499.461 139.794 513.066 139.847 513.646 139.311 514.054 138.761 513.937 137.21 513.8 135.612 514.151 134.099 513.696 133.093 513.387 132.608 512.297 132.62 511.311 132.605 498.789 132.62 486.265 132.613 473.741 132.608 473.076 132.52 472.394 132.72 471.749Z" fill="#0569FB"/><path d="M105.291 482.324C108.906 481.092 112.969 481.06 116.531 482.491 117.796 482.976 118.968 483.659 120.113 484.378 120.31 483.706 120.034 482.531 120.942 482.362 122.558 482.227 124.183 482.404 125.804 482.302 126.289 482.217 126.949 482.369 126.924 482.984 126.934 493.019 126.887 503.058 126.942 513.093 126.974 513.477 126.738 513.984 126.279 513.922 124.853 513.87 123.377 514.101 121.993 513.658 120.875 513.29 120.407 512.105 120.101 511.074 117.758 512.56 115.134 513.686 112.351 513.949 108.042 514.383 103.559 513.021 100.268 510.195 97.4075 507.766 95.3537 504.365 94.709 500.654 93.9846 496.785 94.7712 492.673 96.8075 489.312 98.7293 486.111 101.734 483.519 105.291 482.324ZM108.732 488.324C106.1 488.859 103.76 490.591 102.434 492.919 101.224 495.005 100.87 497.552 101.415 499.897 101.956 502.274 103.442 504.425 105.491 505.752 107.634 507.176 110.372 507.656 112.872 507.056 115.6 506.431 117.982 504.517 119.225 502.018 120.402 499.718 120.559 496.932 119.695 494.5 118.234 490.094 113.265 487.283 108.732 488.324Z" fill="#0569FB"/><path d="M59.2226 472.757C59.1703 472.14 59.9197 472.14 60.3454 472.138 69.8026 472.195 79.2623 472.162 88.7195 472.165 89.882 472.17 91.0521 472.055 92.2096 472.197 92.7971 472.304 92.6502 473.066 92.6527 473.502 92.5631 475.526 91.8984 477.537 90.6338 479.133 84.1017 487.223 77.694 495.416 71.2165 503.551 70.3253 504.719 69.3321 505.814 68.5404 507.056 69.4491 507.173 70.3677 507.104 71.2813 507.114 78.0076 507.116 84.7365 507.114 91.4653 507.114 92.0528 507.031 92.812 507.372 92.6702 508.079 92.5307 509.752 93.066 511.784 91.7192 513.098 90.9749 513.788 89.9169 513.937 88.9435 513.937 79.0781 513.932 69.2126 513.935 59.3496 513.937 58.9065 513.967 58.3613 513.8 58.2617 513.307 57.9605 511.042 58.7123 508.707 60.1562 506.957 66.5166 499.105 72.8297 491.219 79.1552 483.342 80.1385 482.055 81.2463 480.86 82.135 479.501 80.6862 479.277 79.22 479.506 77.7612 479.414 71.9434 479.29 66.1208 479.446 60.3005 479.422 59.845 479.449 59.1828 479.267 59.2127 478.695 59.2201 476.716 59.2102 474.737 59.2226 472.757Z" fill="#0468FB"/><path d="M158.552 481.373C162.117 480.845 165.851 481.543 168.978 483.34 171.835 484.965 174.19 487.462 175.642 490.415 177.546 494.224 177.867 498.782 176.545 502.827 175.296 506.675 172.57 510.019 169.057 512.023 165.789 513.922 161.855 514.624 158.134 513.997 154.245 513.342 150.658 511.186 148.184 508.129 145.786 505.197 144.402 501.423 144.462 497.629 144.437 493.855 145.834 490.109 148.241 487.216 150.808 484.092 154.544 481.948 158.552 481.373ZM158.96 488.244C155.669 488.869 152.814 491.351 151.773 494.54 150.424 498.388 151.771 503.021 155.072 505.453 157.402 507.246 160.573 507.821 163.404 507.069 165.873 506.439 168.049 504.759 169.289 502.533 170.504 500.395 170.837 497.793 170.272 495.406 169.714 492.981 168.166 490.801 166.045 489.494 163.961 488.182 161.365 487.766 158.96 488.244Z" fill="#0568FB"/><path d="M108.732 488.324C113.265 487.283 118.234 490.094 119.695 494.5 120.559 496.932 120.402 499.718 119.225 502.018 117.982 504.517 115.6 506.431 112.872 507.056 110.372 507.656 107.634 507.176 105.491 505.752 103.442 504.425 101.956 502.274 101.415 499.897 100.87 497.552 101.224 495.005 102.434 492.919 103.76 490.591 106.1 488.859 108.732 488.324Z" fill="#FBFDFE"/><path d="M158.96 488.244C161.365 487.766 163.961 488.182 166.045 489.494 168.166 490.801 169.714 492.981 170.272 495.406 170.837 497.793 170.504 500.395 169.289 502.533 168.049 504.759 165.873 506.439 163.404 507.069 160.573 507.821 157.402 507.246 155.072 505.453 151.771 503.021 150.424 498.388 151.773 494.54 152.814 491.351 155.669 488.869 158.96 488.244Z" fill="#FBFDFE"/><path d="M181.823 551.191C185.184 548.731 188.218 545.859 191.021 542.789L191.021 587.27C190.897 587.354 190.65 587.524 190.528 587.608 186.371 587.573 182.211 587.715 178.059 587.501 143.75 587.514 109.439 587.491 75.1299 587.511 74.1391 586.003 72.6604 584.92 71.5003 583.555 69.5038 581.248 67.2061 579.224 65.2096 576.916 63.2106 574.765 61.0399 572.779 59.1031 570.573 56.32 567.633 53.3651 564.858 50.6566 561.848 49.1854 560.317 47.6893 558.816 46.213 557.292 53.2456 557.927 60.3678 556.665 66.8725 553.969 67.5123 553.72 68.2666 553.274 68.9039 553.79 75.339 557.845 82.3466 560.959 89.6231 563.162 100.529 566.446 111.931 567.989 123.31 568.064 134.494 568.022 145.699 566.563 156.446 563.434 165.485 560.758 174.208 556.784 181.823 551.191Z" fill="#015BDF"/><path d="M190.528 587.608C190.65 587.524 190.897 587.354 191.021 587.27L191.021 587.758 190.648 587.758 190.528 587.608Z" fill="#001B42"/><path d="M18.999 587.618C22.9023 587.735 26.8007 587.429 30.7066 587.534 45.5135 587.519 60.3229 587.561 75.1299 587.511 109.439 587.491 143.75 587.514 178.059 587.501 182.211 587.715 186.371 587.573 190.528 587.608L190.648 587.758 18.877 587.758 18.999 587.618Z" fill="#0148B2"/><path d="M210.343 463.39C212.979 462.974 215.66 462.972 218.324 463.032L218.095 463.243C214.61 465.526 211.72 468.66 209.631 472.257 205.444 479.459 203.918 487.975 204.264 496.23 204.607 502.952 206.22 509.71 209.641 515.553 210.213 516.598 211.167 517.522 211.182 518.792 211.289 521.515 209.942 524.082 208.12 526.028 208.239 526.153 208.356 526.277 208.476 526.402 210.181 528.264 212.001 530.014 213.733 531.851 216.195 534.634 219.001 537.099 221.413 539.932 217.4 539.991 213.34 540.178 209.375 539.429 204.383 538.46 199.952 535 197.836 530.375 196.554 527.701 196.171 524.711 196.071 521.781 196.069 508.254 196.069 494.729 196.071 481.204 196.126 476.683 197.323 471.954 200.505 468.6 203.024 465.76 206.591 463.913 210.343 463.39Z" fill="#0068FF"/><path d="M246.892 488.229C247.96 488.229 249.028 488.229 250.099 488.229 250.081 494.485 250.081 500.743 250.099 506.999 249.053 506.852 247.313 507.522 246.92 506.131 246.855 500.166 246.915 494.196 246.892 488.229Z" fill="#0068FF"/><path d="M214.221 488.451C219.19 488.446 224.154 488.413 229.12 488.448 229.086 489.422 229.031 490.482 228.379 491.269 224.983 495.496 221.66 499.778 218.267 504.005 221.874 504.027 225.481 504.012 229.088 504.012 229.021 504.856 229.317 505.839 228.769 506.571 228.426 507.044 227.804 507.002 227.288 507.007 222.775 506.982 218.262 507.029 213.751 506.982 213.763 506.028 213.773 504.973 214.44 504.214 217.796 500.004 221.192 495.824 224.532 491.605 221.1 491.61 217.664 491.582 214.231 491.62 214.209 490.564 214.216 489.506 214.221 488.451Z" fill="#0068FF"/><path d="M258.047 492.593C261.622 491.794 265.5 494.142 266.479 497.662 267.706 501.324 265.466 505.677 261.764 506.793 258.62 507.9 254.856 506.454 253.225 503.556 251.946 501.416 251.869 498.613 253.031 496.409 254.017 494.465 255.921 493.044 258.047 492.593ZM257.987 495.765C255.807 496.534 254.632 499.188 255.483 501.331 256.188 503.357 258.56 504.597 260.621 503.975 262.974 503.412 264.395 500.656 263.561 498.398 262.864 496.163 260.163 494.873 257.987 495.765Z" fill="#0068FF"/><path d="M231.565 495.2C233.285 493.069 236.297 492.018 238.951 492.777 239.827 492.999 240.621 493.437 241.388 493.903 241.381 493.669 241.363 493.203 241.356 492.969 242.359 492.964 243.36 492.967 244.363 492.962 244.358 497.642 244.353 502.322 244.365 507.004 243.629 506.984 242.879 507.072 242.155 506.922 241.647 506.716 241.49 506.16 241.289 505.707 238.52 507.858 234.171 507.37 231.871 504.751 229.419 502.215 229.292 497.893 231.565 495.2ZM235.618 495.827C233.313 496.638 232.195 499.608 233.362 501.749 234.358 503.835 237.161 504.712 239.165 503.561 241.025 502.586 241.884 500.163 241.084 498.227 240.31 496.121 237.699 494.941 235.618 495.827Z" fill="#0068FF"/><path d="M218.095 463.243C218.653 463.084 219.235 463.034 219.813 463.017 229.768 463.054 239.723 463.012 249.678 463.029 252.339 463.061 255.015 462.882 257.656 463.288 261.313 463.567 264.833 465.115 267.554 467.562 270.97 470.826 272.792 475.526 272.849 480.213 272.852 493.41 272.844 506.616 272.857 519.807 272.822 519.884 272.755 520.044 272.72 520.123 269.172 524.091 264.403 526.778 259.416 528.515 252.697 530.805 245.501 531.542 238.438 531.005 231.376 530.397 224.259 528.552 218.269 524.649 215.207 526.011 211.829 526.678 208.476 526.402 208.356 526.277 208.239 526.153 208.12 526.028 209.942 524.082 211.289 521.515 211.182 518.792 211.167 517.522 210.213 516.598 209.641 515.553 206.22 509.71 204.607 502.952 204.264 496.23 203.918 487.975 205.444 479.459 209.631 472.257 211.72 468.66 214.61 465.526 218.095 463.243ZM246.892 488.229C246.915 494.196 246.855 500.166 246.92 506.131 247.313 507.522 249.053 506.852 250.099 506.999 250.081 500.743 250.081 494.485 250.099 488.229 249.028 488.229 247.96 488.229 246.892 488.229ZM214.221 488.451C214.216 489.506 214.209 490.564 214.231 491.62 217.664 491.582 221.1 491.61 224.532 491.605 221.192 495.824 217.796 500.004 214.44 504.214 213.773 504.973 213.763 506.028 213.751 506.982 218.262 507.029 222.775 506.982 227.288 507.007 227.804 507.002 228.426 507.044 228.769 506.571 229.317 505.839 229.021 504.856 229.088 504.012 225.481 504.012 221.874 504.027 218.267 504.005 221.66 499.778 224.983 495.496 228.379 491.269 229.031 490.482 229.086 489.422 229.12 488.448 224.154 488.413 219.19 488.446 214.221 488.451ZM258.047 492.593C255.921 493.044 254.017 494.465 253.031 496.409 251.869 498.613 251.946 501.416 253.225 503.556 254.856 506.454 258.62 507.9 261.764 506.793 265.466 505.677 267.706 501.324 266.479 497.662 265.5 494.142 261.622 491.794 258.047 492.593ZM231.565 495.2C229.292 497.893 229.419 502.215 231.871 504.751 234.171 507.37 238.52 507.858 241.289 505.707 241.49 506.16 241.647 506.716 242.155 506.922 242.879 507.072 243.629 506.984 244.365 507.004 244.353 502.322 244.358 497.642 244.363 492.962 243.36 492.967 242.359 492.964 241.356 492.969 241.363 493.203 241.381 493.669 241.388 493.903 240.621 493.437 239.827 492.999 238.951 492.777 236.297 492.018 233.285 493.069 231.565 495.2Z" fill="#FFFFFF"/><path d="M235.618 495.827C237.699 494.941 240.31 496.121 241.084 498.227 241.884 500.163 241.025 502.586 239.165 503.561 237.161 504.712 234.358 503.835 233.362 501.749 232.195 499.608 233.313 496.638 235.618 495.827Z" fill="#FFFFFF"/><path d="M257.987 495.765C260.163 494.873 262.864 496.163 263.561 498.398 264.395 500.656 262.974 503.412 260.621 503.975 258.56 504.597 256.188 503.357 255.483 501.331 254.632 499.188 255.807 496.534 257.987 495.765Z" fill="#FFFFFF"/><path d="M272.72 520.123 272.916 519.909C273.018 523.8 272.598 527.86 270.688 531.323 268.468 535.386 264.44 538.403 259.909 539.369 257.368 539.894 254.761 540.011 252.172 539.979 244.209 539.981 236.245 539.979 228.281 539.981 225.991 539.944 223.696 540.051 221.413 539.932 219.001 537.099 216.195 534.634 213.733 531.851 212.001 530.014 210.181 528.264 208.476 526.402 211.829 526.678 215.207 526.011 218.269 524.649 224.259 528.552 231.376 530.397 238.438 531.005 245.501 531.542 252.697 530.805 259.416 528.515 264.403 526.778 269.172 524.091 272.72 520.123Z" fill="#005BE0"/></g></svg>